<svg width="25" height="25" viewBox="0 0 25 25" fill="none" xmlns="http://www.w3.org/2000/svg">
<g clip-path="url(#clip0_59_551)">
<circle cx="12.5" cy="12.5" r="12.5" fill="white"/>
<g clip-path="url(#clip1_59_551)">
<path d="M8.30843 14.3616C8.29908 14.3524 8.29014 14.3428 8.28084 14.3334L7.07854 18.5335C7.00205 18.8007 7.16195 18.9723 7.43381 18.9149L8.92322 18.6006C8.94297 18.5964 8.96343 18.5933 8.98425 18.591L9.86544 15.4833C9.29647 15.2004 8.77095 14.8241 8.30843 14.3616Z" fill="#FF3A00"/>
<path d="M9.71426 18.7944C9.73725 18.812 9.75923 18.8301 9.77883 18.8493L10.8394 19.8859C11.0381 20.0801 11.2632 20.0204 11.3397 19.7533L12.3864 16.0965C11.7591 16.0848 11.1478 15.9761 10.5697 15.7776L9.71426 18.7944Z" fill="#FF3A00"/>
<path d="M12.6135 16.0965L13.6603 19.7533C13.7368 20.0204 13.9619 20.0801 14.1606 19.8859L15.2211 18.8493C15.2388 18.832 15.2584 18.8156 15.2788 18.7998L14.4295 15.7779C13.8516 15.9761 13.2406 16.0848 12.6135 16.0965Z" fill="#FF3A00"/>
<path d="M16.7192 14.3333C16.7099 14.3427 16.7009 14.3523 16.6916 14.3616C16.229 14.8242 15.7033 15.2006 15.134 15.4835L16.0071 18.5901C16.0309 18.5926 16.0544 18.5958 16.0768 18.6005L17.5662 18.9148C17.838 18.9722 17.9979 18.8006 17.9214 18.5335L16.7192 14.3333Z" fill="#FF3A00"/>
<path d="M17.67 10.17C17.67 7.31467 15.3553 5 12.5 5C9.64472 5 7.33005 7.31467 7.33005 10.17C7.33005 13.0254 9.64472 15.34 12.5 15.34C15.3553 15.34 17.67 13.0254 17.67 10.17ZM12.5 14.2939C10.2261 14.2939 8.37619 12.444 8.37619 10.17C8.37619 7.89607 10.2261 6.04614 12.5 6.04614C14.7739 6.04614 16.6238 7.89607 16.6238 10.17C16.6238 12.444 14.7739 14.2939 12.5 14.2939Z" fill="#FF3A00"/>
<path d="M12.5 13.5361C14.356 13.5361 15.866 12.0261 15.866 10.17C15.866 8.31398 14.356 6.80396 12.5 6.80396C10.644 6.80396 9.134 8.31398 9.134 10.17C9.134 12.0261 10.644 13.5361 12.5 13.5361Z" fill="#FF3A00"/>
</g>
</g>
<defs>
<clipPath id="clip0_59_551">
<rect width="25" height="25" fill="white"/>
</clipPath>
<clipPath id="clip1_59_551">
<rect width="15" height="15" fill="white" transform="translate(5 5)"/>
</clipPath>
</defs>
</svg>
