<svg width="25" height="25" viewBox="0 0 25 25" fill="none" xmlns="http://www.w3.org/2000/svg">
<g clip-path="url(#clip0_40_466)">
<circle cx="12.5" cy="12.5" r="12.5" fill="#CED3FF"/>
<path d="M13 12.1541C14.6967 12.1541 16.0771 10.7738 16.0771 9.07706C16.0771 7.38034 14.6967 6 13 6C11.3033 6 9.92291 7.38034 9.92291 9.07706C9.92291 10.7738 11.3033 12.1541 13 12.1541ZM13 7.4711C13.8856 7.4711 14.606 8.1915 14.606 9.07706C14.606 9.96261 13.8856 10.683 13 10.683C12.1145 10.683 11.394 9.96261 11.394 9.07706C11.394 8.1915 12.1145 7.4711 13 7.4711Z" fill="#2D368D"/>
<path d="M13 12.6252C9.89054 12.6252 7.36078 15.155 7.36078 18.2644C7.36078 18.6707 7.69011 19 8.09633 19H17.9037C18.3099 19 18.6392 18.6707 18.6392 18.2644C18.6392 15.155 16.1095 12.6252 13 12.6252ZM8.89686 17.5289C9.24531 15.5802 10.9526 14.0963 13 14.0963C15.0474 14.0963 16.7547 15.5802 17.1032 17.5289H8.89686Z" fill="#2D368D"/>
</g>
<defs>
<clipPath id="clip0_40_466">
<rect width="25" height="25" fill="white"/>
</clipPath>
</defs>
</svg>
