<svg width="25" height="25" viewBox="0 0 25 25" fill="none" xmlns="http://www.w3.org/2000/svg">
<g clip-path="url(#clip0_40_477)">
<circle cx="12.5" cy="12.5" r="12.5" fill="#FFE0D7"/>
<g clip-path="url(#clip1_40_477)">
<path d="M8.3084 14.3616C8.29905 14.3524 8.29011 14.3428 8.28081 14.3334L7.07851 18.5335C7.00202 18.8007 7.16192 18.9723 7.43378 18.9149L8.92319 18.6006C8.94294 18.5964 8.9634 18.5933 8.98422 18.591L9.86541 15.4833C9.29644 15.2005 8.77092 14.8241 8.3084 14.3616Z" fill="#FF3A00"/>
<path d="M9.71423 18.7944C9.73722 18.8119 9.7592 18.8301 9.7788 18.8493L10.8393 19.8859C11.0381 20.0801 11.2632 20.0204 11.3396 19.7533L12.3864 16.0965C11.7591 16.0848 11.1478 15.9761 10.5697 15.7776L9.71423 18.7944Z" fill="#FF3A00"/>
<path d="M12.6135 16.0965L13.6603 19.7533C13.7368 20.0204 13.9619 20.0801 14.1606 19.8859L15.2211 18.8493C15.2388 18.832 15.2584 18.8156 15.2788 18.7998L14.4295 15.7779C13.8516 15.9761 13.2406 16.0848 12.6135 16.0965Z" fill="#FF3A00"/>
<path d="M16.7191 14.3334C16.7098 14.3428 16.7009 14.3523 16.6915 14.3616C16.229 14.8242 15.7032 15.2006 15.134 15.4835L16.0071 18.5902C16.0309 18.5926 16.0543 18.5958 16.0767 18.6005L17.5661 18.9149C17.838 18.9723 17.9979 18.8006 17.9214 18.5335L16.7191 14.3334Z" fill="#FF3A00"/>
<path d="M17.67 10.17C17.67 7.31467 15.3553 5 12.4999 5C9.64469 5 7.33002 7.31467 7.33002 10.17C7.33002 13.0254 9.64469 15.34 12.4999 15.34C15.3553 15.34 17.67 13.0254 17.67 10.17ZM12.4999 14.2939C10.2261 14.2939 8.37616 12.444 8.37616 10.17C8.37616 7.89607 10.2261 6.04614 12.4999 6.04614C14.7739 6.04614 16.6238 7.89607 16.6238 10.17C16.6238 12.444 14.7739 14.2939 12.4999 14.2939Z" fill="#FF3A00"/>
<path d="M12.4999 13.5361C14.356 13.5361 15.866 12.0261 15.866 10.17C15.866 8.31398 14.356 6.80396 12.4999 6.80396C10.644 6.80396 9.13397 8.31398 9.13397 10.17C9.13397 12.0261 10.644 13.5361 12.4999 13.5361Z" fill="#FF3A00"/>
</g>
</g>
<defs>
<clipPath id="clip0_40_477">
<rect width="25" height="25" fill="white"/>
</clipPath>
<clipPath id="clip1_40_477">
<rect width="15" height="15" fill="white" transform="translate(5 5)"/>
</clipPath>
</defs>
</svg>
