<svg width="25" height="25" viewBox="0 0 25 25" fill="none" xmlns="http://www.w3.org/2000/svg">
<g clip-path="url(#clip0_40_500)">
<circle cx="12.5" cy="12.5" r="12.5" fill="#FFEEB4"/>
<path d="M14.6154 9.84615L11.3846 14.1538M15.1538 13.6154C15.1538 13.9128 14.9128 14.1538 14.6154 14.1538C14.318 14.1538 14.0769 13.9128 14.0769 13.6154C14.0769 13.318 14.318 13.0769 14.6154 13.0769C14.9128 13.0769 15.1538 13.318 15.1538 13.6154ZM11.9231 10.3846C11.9231 10.682 11.682 10.9231 11.3846 10.9231C11.0872 10.9231 10.8462 10.682 10.8462 10.3846C10.8462 10.0872 11.0872 9.84615 11.3846 9.84615C11.682 9.84615 11.9231 10.0872 11.9231 10.3846ZM20 12C20 12.8615 18.8154 13.5077 18.4923 14.2615C18.1692 15.0692 18.5462 16.3615 17.9538 16.9538C17.3615 17.5462 16.0692 17.1692 15.2615 17.4923C14.5077 17.8154 13.8615 19 13 19C12.1385 19 11.4923 17.8154 10.7385 17.4923C9.93077 17.1692 8.63846 17.5462 8.04615 16.9538C7.45385 16.3615 7.83077 15.0692 7.50769 14.2615C7.18462 13.5077 6 12.8615 6 12C6 11.1385 7.18462 10.4923 7.50769 9.73846C7.83077 8.93077 7.45385 7.63846 8.04615 7.04615C8.63846 6.45385 9.93077 6.83077 10.7385 6.50769C11.4923 6.18462 12.1385 5 13 5C13.8615 5 14.5077 6.18462 15.2615 6.50769C16.0692 6.83077 17.3615 6.45385 17.9538 7.04615C18.5462 7.63846 18.1692 8.93077 18.4923 9.73846C18.8154 10.4923 20 11.1385 20 12Z" stroke="#FFC700" stroke-width="1.5" stroke-linecap="round" stroke-linejoin="round"/>
</g>
<defs>
<clipPath id="clip0_40_500">
<rect width="25" height="25" fill="white"/>
</clipPath>
</defs>
</svg>
