<svg width="25" height="25" viewBox="0 0 25 25" fill="none" xmlns="http://www.w3.org/2000/svg">
<g clip-path="url(#clip0_113_241)">
<circle cx="12.5" cy="12.5" r="12.5" fill="white"/>
<g clip-path="url(#clip1_113_241)">
<path d="M19.8936 10.1002L15.8998 6.10634C15.8317 6.03825 15.7393 6 15.643 6H8.46625C7.10635 6 6 7.10635 6 8.46625V17.5338C6 18.8937 7.10635 20.0001 8.46625 20.0001H17.5338C18.8937 20.0001 20.0001 18.8937 20.0001 17.5338V10.357C20 10.2607 19.9617 10.1683 19.8936 10.1002ZM15.9456 7.17935L18.8206 10.0543H15.9456V7.17935ZM17.5338 19.2737H8.46625C7.50685 19.2737 6.72631 18.4931 6.72631 17.5338V8.46625C6.72631 7.50685 7.50685 6.72631 8.46625 6.72631H15.2193V10.4175C15.2193 10.618 15.3819 10.7806 15.5825 10.7806H19.2736V17.5338C19.2737 18.4931 18.4931 19.2737 17.5338 19.2737Z" fill="#8E00FF"/>
<path d="M12.2842 9.17148C11.929 8.81638 11.4569 8.62082 10.9548 8.62082C10.4526 8.62082 9.98048 8.81638 9.62537 9.17148C9.27027 9.52659 9.07471 9.99869 9.07471 10.5009C9.07471 11.0031 9.27027 11.4752 9.62537 11.8303L13.3499 15.5548C13.8315 16.0363 14.6149 16.0362 15.0964 15.5548C15.5779 15.0732 15.5779 14.2899 15.0964 13.8083L11.4086 10.1207C11.2668 9.9789 11.0368 9.9789 10.8951 10.1207C10.7533 10.2625 10.7533 10.4925 10.8951 10.6343L14.5827 14.3219C14.781 14.5202 14.781 14.8429 14.5827 15.0412C14.3845 15.2395 14.0618 15.2395 13.8635 15.0412L10.1389 11.3168C9.92098 11.0988 9.80102 10.8091 9.80102 10.5009C9.80102 10.1927 9.92104 9.903 10.1389 9.68511C10.5888 9.23522 11.3207 9.23522 11.7706 9.68511L15.6731 13.5876C16.3732 14.2877 16.3732 15.4268 15.6731 16.1269C15.3339 16.4661 14.883 16.6528 14.4034 16.6528C13.9238 16.6528 13.4729 16.4661 13.1338 16.1269L10.1333 13.1264C9.99149 12.9846 9.76149 12.9846 9.61974 13.1264C9.47793 13.2682 9.47793 13.4982 9.61974 13.64L12.6202 16.6404C13.0965 17.1168 13.7298 17.3791 14.4034 17.3791C15.077 17.3791 15.7103 17.1168 16.1866 16.6404C16.6629 16.1641 16.9253 15.5308 16.9253 14.8572C16.9253 14.1836 16.663 13.5502 16.1866 13.074L12.2842 9.17148Z" fill="#8E00FF"/>
</g>
</g>
<defs>
<clipPath id="clip0_113_241">
<rect width="25" height="25" fill="white"/>
</clipPath>
<clipPath id="clip1_113_241">
<rect width="14" height="14" fill="white" transform="translate(6 6)"/>
</clipPath>
</defs>
</svg>
