<svg width="25" height="25" viewBox="0 0 25 25" fill="none" xmlns="http://www.w3.org/2000/svg">
<g clip-path="url(#clip0_59_575)">
<circle cx="12.5" cy="12.5" r="12.5" fill="white"/>
<path d="M13.6154 9.84615L10.3846 14.1538M14.1538 13.6154C14.1538 13.9128 13.9128 14.1538 13.6154 14.1538C13.318 14.1538 13.0769 13.9128 13.0769 13.6154C13.0769 13.318 13.318 13.0769 13.6154 13.0769C13.9128 13.0769 14.1538 13.318 14.1538 13.6154ZM10.9231 10.3846C10.9231 10.682 10.682 10.9231 10.3846 10.9231C10.0872 10.9231 9.84615 10.682 9.84615 10.3846C9.84615 10.0872 10.0872 9.84615 10.3846 9.84615C10.682 9.84615 10.9231 10.0872 10.9231 10.3846ZM19 12C19 12.8615 17.8154 13.5077 17.4923 14.2615C17.1692 15.0692 17.5462 16.3615 16.9538 16.9538C16.3615 17.5462 15.0692 17.1692 14.2615 17.4923C13.5077 17.8154 12.8615 19 12 19C11.1385 19 10.4923 17.8154 9.73846 17.4923C8.93077 17.1692 7.63846 17.5462 7.04615 16.9538C6.45385 16.3615 6.83077 15.0692 6.50769 14.2615C6.18462 13.5077 5 12.8615 5 12C5 11.1385 6.18462 10.4923 6.50769 9.73846C6.83077 8.93077 6.45385 7.63846 7.04615 7.04615C7.63846 6.45385 8.93077 6.83077 9.73846 6.50769C10.4923 6.18462 11.1385 5 12 5C12.8615 5 13.5077 6.18462 14.2615 6.50769C15.0692 6.83077 16.3615 6.45385 16.9538 7.04615C17.5462 7.63846 17.1692 8.93077 17.4923 9.73846C17.8154 10.4923 19 11.1385 19 12Z" stroke="#FFC700" stroke-width="1.5" stroke-linecap="round" stroke-linejoin="round"/>
</g>
<defs>
<clipPath id="clip0_59_575">
<rect width="25" height="25" fill="white"/>
</clipPath>
</defs>
</svg>
