<svg width="25" height="25" viewBox="0 0 25 25" fill="none" xmlns="http://www.w3.org/2000/svg">
<g clip-path="url(#clip0_40_509)">
<circle cx="12.5" cy="12.5" r="12.5" fill="#F3E4FF"/>
<g clip-path="url(#clip1_40_509)">
<path d="M17.1751 15.3168L15.8693 17.1928L14.9479 16.4365C14.8485 16.3546 14.7013 16.3696 14.6196 16.4687C14.5377 16.5684 14.5522 16.7156 14.652 16.797L15.7688 17.7138C15.8108 17.7483 15.863 17.767 15.9167 17.767C15.9272 17.767 15.9379 17.7663 15.9487 17.7647C16.0131 17.7558 16.0709 17.7203 16.1083 17.6669L17.5582 15.5835C17.6317 15.4778 17.6058 15.3324 17.4999 15.2587C17.3939 15.184 17.2488 15.2108 17.1751 15.3168Z" fill="#8E00FF"/>
<path d="M15.9667 13.5833C15.7968 13.5833 15.6311 13.6008 15.469 13.6279C15.7415 13.2329 15.9625 12.797 16.1237 12.3275C16.4529 12.1763 16.6667 11.8508 16.6667 11.4833V10.55C16.6667 10.3253 16.5827 10.1076 16.4333 9.9375V8.6964C16.4464 8.56806 16.4977 7.80413 15.9452 7.1739C15.4659 6.6272 14.6882 6.35 13.6333 6.35C12.5784 6.35 11.8007 6.6272 11.3215 7.17367C10.9866 7.55563 10.8739 7.9859 10.8399 8.29483C10.4399 8.0881 9.9686 7.98333 9.43333 7.98333C7.00923 7.98333 6.86807 10.0495 6.86667 10.0833V11.1518C6.71547 11.3165 6.63333 11.5067 6.63333 11.6954V12.5014C6.63333 12.7531 6.74603 12.9879 6.93923 13.1465C7.13173 13.8722 7.60517 14.4205 7.7895 14.613V15.2531C7.7895 15.4367 7.68963 15.6052 7.51627 15.6999L5.9639 16.6736C5.36937 16.9979 5 17.6202 5 18.2974V19.1833H8.26667H8.73333H14.3576C14.8247 19.4773 15.3754 19.65 15.9667 19.65C17.6392 19.65 19 18.2892 19 16.6167C19 14.9441 17.6392 13.5833 15.9667 13.5833ZM8.26667 18.1945V18.7167H5.46667V18.2974C5.46667 17.791 5.74293 17.3258 6.19957 17.0763L7.7517 16.1026C8.06273 15.933 8.25593 15.6077 8.25593 15.2531V14.4152L8.18173 14.3459C8.17567 14.3403 7.5557 13.7546 7.37253 12.9564L7.3513 12.864L7.2715 12.8126C7.16417 12.7431 7.1 12.6267 7.1 12.5014V11.6954C7.1 11.6114 7.15717 11.5116 7.25657 11.4215L7.33333 11.3522L7.33287 10.0969C7.33707 10.0299 7.45863 8.45 9.43333 8.45C9.9917 8.45 10.4619 8.57903 10.8333 8.8336V9.9375C10.684 10.1076 10.6 10.3253 10.6 10.55V11.4833C10.6 11.5543 10.6082 11.624 10.6236 11.6917C10.6299 11.7188 10.6425 11.7435 10.6511 11.7696C10.6639 11.8088 10.6742 11.8492 10.6922 11.8863C10.6924 11.8868 10.6926 11.887 10.6929 11.8875C10.7526 12.0107 10.8396 12.1208 10.9493 12.2088C10.9505 12.2132 10.9519 12.2172 10.953 12.2214C10.967 12.2748 10.9817 12.328 10.9976 12.38L11.0165 12.4409C11.0198 12.4517 11.0237 12.4626 11.0272 12.4734C11.0354 12.4986 11.0433 12.5238 11.0517 12.5485C11.0657 12.5893 11.0804 12.6313 11.0975 12.6775C11.1047 12.6969 11.1126 12.7139 11.1201 12.7328C11.1392 12.7816 11.1584 12.8287 11.1784 12.8754C11.1833 12.8866 11.1875 12.8987 11.1924 12.9097L11.2055 12.9391C11.2116 12.9526 11.2179 12.9648 11.2239 12.9781C11.2468 13.028 11.2692 13.0763 11.2925 13.1232C11.2963 13.1307 11.2998 13.1388 11.3035 13.1463C11.3182 13.1755 11.3329 13.203 11.3476 13.231C11.3728 13.2791 11.3975 13.3243 11.4223 13.3682C11.4344 13.3897 11.4463 13.4107 11.4582 13.431C11.4918 13.4884 11.5238 13.5411 11.5548 13.5901C11.5616 13.6006 11.5681 13.6116 11.5746 13.6216C11.6311 13.7091 11.6801 13.78 11.7207 13.8353C11.7314 13.85 11.7408 13.8626 11.7499 13.875C11.755 13.8818 11.762 13.8916 11.7664 13.8976V14.6697C11.7664 14.8956 11.6432 15.1028 11.4451 15.2111L10.8277 15.5478L10.6763 15.6304L9.36357 16.3465C8.6869 16.7156 8.26667 17.4235 8.26667 18.1945ZM8.73333 18.7167V18.1945C8.73333 17.5946 9.06047 17.0432 9.5871 16.7562L11.6687 15.6208C12.017 15.4306 12.2333 15.0659 12.2333 14.6695V13.732V13.7317L12.1881 13.6776L12.1792 13.6671C12.1787 13.6664 12.1643 13.6489 12.1407 13.6181C12.1393 13.6162 12.1379 13.6144 12.1363 13.6125C12.1239 13.5964 12.1094 13.5768 12.0929 13.5539C12.0926 13.5535 12.0924 13.5532 12.0922 13.5528C12.0574 13.5045 12.0138 13.4417 11.9652 13.3661C11.9641 13.3645 11.9631 13.3626 11.962 13.361C11.9391 13.325 11.9148 13.2863 11.8901 13.245C11.8882 13.242 11.8864 13.2389 11.8845 13.2357C11.8318 13.1472 11.7758 13.0471 11.72 12.9363L11.7198 12.9358C11.6901 12.8766 11.6605 12.8138 11.6316 12.7487C11.6276 12.7396 11.6234 12.7307 11.6194 12.7216C11.6066 12.6925 11.5938 12.6619 11.5807 12.6304C11.576 12.619 11.5714 12.6071 11.5667 12.5954C11.5546 12.5648 11.5422 12.534 11.5291 12.4988C11.5053 12.4353 11.4829 12.3691 11.4615 12.3007L11.4486 12.2592C11.4472 12.2545 11.4456 12.2498 11.4442 12.2449C11.4223 12.1712 11.4013 12.0958 11.3835 12.0184L11.3623 11.926L11.2827 11.8746C11.1474 11.7874 11.0667 11.6411 11.0667 11.4833V10.55C11.0667 10.4191 11.1222 10.2971 11.223 10.2058L11.3 10.1365V8.68333V8.60073L11.2937 8.59583C11.2858 8.42737 11.2958 7.911 11.6724 7.48143C12.059 7.0402 12.7189 6.81667 13.6333 6.81667C14.5445 6.81667 15.203 7.03857 15.5901 7.47653C16.0444 7.9901 15.9692 8.64717 15.9688 8.65277L15.9667 10.1365L16.0437 10.2061C16.1445 10.2971 16.2 10.4191 16.2 10.55V11.4833C16.2 11.687 16.0665 11.8653 15.8682 11.9264L15.752 11.9621L15.7147 12.0776C15.5586 12.5632 15.3362 13.0117 15.0534 13.4107C14.9841 13.5089 14.9167 13.5959 14.8581 13.6624L14.8 13.7287V13.8174C14.7412 13.8419 14.6847 13.8708 14.628 13.8988C14.6136 13.906 14.5989 13.9126 14.5846 13.9198C14.5335 13.9462 14.4838 13.9742 14.4346 14.0031C14.4087 14.0183 14.3833 14.0339 14.3581 14.0495C14.3133 14.0778 14.2687 14.1062 14.2255 14.1368C14.1975 14.1564 14.1707 14.1776 14.1434 14.1984C14.076 14.2493 14.0109 14.3029 13.9481 14.3592C13.918 14.3862 13.8874 14.4126 13.8583 14.4408C13.8249 14.4733 13.7929 14.5071 13.7612 14.5409C13.7344 14.5694 13.708 14.5981 13.6823 14.6277C13.6515 14.6632 13.621 14.6989 13.5918 14.7355C13.5678 14.7659 13.5454 14.7971 13.5225 14.8282C13.474 14.8944 13.4282 14.9626 13.3848 15.0328C13.3645 15.0657 13.3435 15.0981 13.3246 15.1317C13.3011 15.1733 13.2798 15.216 13.2584 15.2587C13.2409 15.2932 13.2241 15.328 13.2077 15.3634C13.1884 15.4059 13.1695 15.4484 13.1522 15.4918C13.1349 15.5345 13.1198 15.5781 13.1046 15.6215C13.0869 15.6721 13.0698 15.723 13.0549 15.775C13.0362 15.8394 13.0192 15.9043 13.0047 15.9701C12.9975 16.0035 12.9917 16.0373 12.9856 16.0711C12.9746 16.1306 12.9655 16.1906 12.9581 16.251C12.9543 16.2811 12.9506 16.3112 12.9478 16.3418C12.9389 16.4328 12.9333 16.5243 12.9333 16.6167C12.9333 16.7182 12.9387 16.819 12.9487 16.9186C12.9525 16.9564 12.9599 16.993 12.9651 17.0304C12.9735 17.0917 12.9809 17.1531 12.9931 17.2135C13.0012 17.2544 13.0129 17.294 13.0227 17.3344C13.0362 17.3902 13.0488 17.4462 13.0656 17.501C13.0771 17.5381 13.0913 17.574 13.1041 17.6107C13.1237 17.6674 13.1431 17.7243 13.1662 17.7796C13.179 17.8106 13.1942 17.8403 13.2082 17.8706C13.235 17.9299 13.2623 17.9889 13.2929 18.0463C13.3064 18.0713 13.3216 18.0953 13.3358 18.12C13.3704 18.1805 13.4054 18.2402 13.4441 18.2981C13.4583 18.3193 13.474 18.3394 13.4887 18.3604C13.5297 18.4187 13.5717 18.4766 13.6172 18.5321C13.634 18.5526 13.6522 18.5718 13.6695 18.5918C13.7057 18.6338 13.7402 18.6768 13.7787 18.7169H8.73333V18.7167ZM15.9667 19.1833C15.4398 19.1833 14.9496 19.0233 14.5417 18.7498C14.4621 18.6966 14.387 18.6387 14.3149 18.5781C14.2897 18.5566 14.2659 18.5337 14.2416 18.5113C14.1957 18.4696 14.1511 18.4266 14.1086 18.3821C14.0813 18.3534 14.055 18.3242 14.0291 18.2946C13.9908 18.2505 13.9549 18.205 13.9199 18.1585C13.8975 18.1289 13.8744 18.1002 13.8531 18.0696C13.8016 17.9947 13.753 17.9177 13.7096 17.8379C13.6996 17.8193 13.6917 17.7997 13.6821 17.7808C13.648 17.714 13.6163 17.6464 13.5881 17.5768C13.5759 17.5465 13.5654 17.5155 13.5542 17.4847C13.5323 17.4235 13.5122 17.3615 13.4947 17.2987C13.4859 17.2665 13.4772 17.2341 13.4695 17.2014C13.4539 17.1349 13.4418 17.0675 13.4315 16.9996C13.4271 16.9704 13.4215 16.9417 13.4182 16.9123C13.4072 16.8145 13.4 16.7161 13.4 16.6167C13.4 16.5376 13.4049 16.4594 13.4119 16.3822C13.4145 16.3546 13.4182 16.3273 13.4217 16.3C13.4278 16.251 13.4352 16.2027 13.4439 16.1544C13.4499 16.122 13.456 16.0896 13.4632 16.0574C13.4726 16.0154 13.4838 15.9743 13.4952 15.9332C13.5048 15.8992 13.5132 15.8646 13.5241 15.8308C13.5442 15.7685 13.5668 15.7071 13.5916 15.6469C13.6084 15.6061 13.6275 15.5664 13.6464 15.5268C13.6588 15.5004 13.6709 15.4743 13.6842 15.4484C13.7045 15.4087 13.7262 15.3697 13.7486 15.3312C13.7626 15.3072 13.7771 15.2836 13.7918 15.2603C13.8158 15.2218 13.8401 15.1833 13.8662 15.1462C13.8795 15.1273 13.894 15.1093 13.9077 15.0907C13.9623 15.0172 14.0207 14.9467 14.0827 14.8795C14.097 14.8641 14.1105 14.848 14.1252 14.8328C14.1572 14.7999 14.1908 14.7684 14.2246 14.7372C14.244 14.7192 14.2636 14.701 14.2836 14.6835C14.3186 14.6529 14.3546 14.6233 14.3912 14.5946C14.4099 14.5801 14.429 14.5661 14.4479 14.5521C14.4885 14.5223 14.5293 14.4924 14.572 14.4649C14.5751 14.463 14.5781 14.4611 14.5811 14.4593C14.741 14.3566 14.9139 14.2707 15.0977 14.2045C15.1131 14.1989 15.1283 14.1928 15.1439 14.1874L15.2128 14.1632C15.4512 14.0899 15.7044 14.05 15.9667 14.05C17.3818 14.05 18.5333 15.2015 18.5333 16.6167C18.5333 18.0318 17.3818 19.1833 15.9667 19.1833Z" fill="#8E00FF"/>
</g>
</g>
<defs>
<clipPath id="clip0_40_509">
<rect width="25" height="25" fill="white"/>
</clipPath>
<clipPath id="clip1_40_509">
<rect width="14" height="14" fill="white" transform="translate(5 6)"/>
</clipPath>
</defs>
</svg>
