<svg xmlns="http://www.w3.org/2000/svg" xmlns:xlink="http://www.w3.org/1999/xlink" width="40" height="40" viewBox="0 0 40 40">
  <defs>
    <clipPath id="clip-path">
      <rect id="Rectangle_190" data-name="Rectangle 190" width="40" height="40" rx="20" fill="#2d3392"/>
    </clipPath>
  </defs>
  <g id="Mask_Group_1" data-name="Mask Group 1" clip-path="url(#clip-path)">
    <rect id="Rectangle_191" data-name="Rectangle 191" width="40" height="40" rx="20" fill="#2d3392"/>
    <rect id="Rectangle_192" data-name="Rectangle 192" width="32" height="32" rx="16" transform="translate(4 4)" fill="#fff"/>
    <path id="XMLID_18_" d="M36.273,0H1.727A1.727,1.727,0,0,0,0,1.727V36.273A1.727,1.727,0,0,0,1.727,38H36.273A1.727,1.727,0,0,0,38,36.273V1.727A1.727,1.727,0,0,0,36.273,0ZM24.827,26.991a1.727,1.727,0,1,1-2.443,2.443l-9.212-9.212a1.727,1.727,0,0,1,0-2.443l9.213-9.213a1.727,1.727,0,0,1,2.443,2.443L16.837,19Z" transform="translate(0.694 1.306)" fill="#2d3392"/>
  </g>
</svg>
