<svg xmlns="http://www.w3.org/2000/svg" width="16.591" height="16.587" viewBox="0 0 16.591 16.587">
  <path id="calender-svgrepo-com" d="M15.554,1.665H11.4V.631a.518.518,0,0,0-1.037,0V1.665H6.218V.631a.518.518,0,1,0-1.037,0V1.665H1.037A1.037,1.037,0,0,0,0,2.7V15.663A1.037,1.037,0,0,0,1.037,16.7H15.554a1.037,1.037,0,0,0,1.037-1.037V2.7a1.037,1.037,0,0,0-1.037-1.037Zm0,14H1.037V2.7H5.181v.522a.518.518,0,1,0,1.037,0V2.7h4.148v.522a.518.518,0,1,0,1.037,0V2.7h4.151ZM11.925,8.4h1.037a.519.519,0,0,0,.518-.518V6.85a.519.519,0,0,0-.518-.518H11.925a.519.519,0,0,0-.518.518V7.886A.519.519,0,0,0,11.925,8.4Zm0,4.148h1.037a.518.518,0,0,0,.518-.518V11a.519.519,0,0,0-.518-.518H11.925a.519.519,0,0,0-.518.518v1.037A.518.518,0,0,0,11.925,12.552ZM8.814,10.479H7.777A.519.519,0,0,0,7.259,11v1.037a.518.518,0,0,0,.518.518H8.814a.518.518,0,0,0,.518-.518V11A.519.519,0,0,0,8.814,10.479Zm0-4.148H7.777a.519.519,0,0,0-.518.518V7.886a.519.519,0,0,0,.518.518H8.814a.519.519,0,0,0,.518-.518V6.85A.518.518,0,0,0,8.814,6.331Zm-4.148,0H3.629a.519.519,0,0,0-.518.518V7.886a.519.519,0,0,0,.518.518H4.666a.519.519,0,0,0,.518-.518V6.85A.518.518,0,0,0,4.666,6.331Zm0,4.148H3.629A.519.519,0,0,0,3.111,11v1.037a.518.518,0,0,0,.518.518H4.666a.518.518,0,0,0,.518-.518V11A.519.519,0,0,0,4.666,10.479Z" transform="translate(0 -0.113)" fill="#6a6a6a"/>
</svg>
