<svg width="15" height="15" viewBox="0 0 15 15" fill="none" xmlns="http://www.w3.org/2000/svg">
<g clip-path="url(#clip0_2_353)">
<path d="M13.3014 5.36543H12.9412V3.62736C12.9412 3.61645 12.9395 3.60561 12.938 3.59453C12.9375 3.52559 12.9155 3.45774 12.8683 3.40412L9.97618 0.100594C9.97533 0.0996642 9.97443 0.0993906 9.97386 0.0985426C9.95665 0.0792006 9.93654 0.0631964 9.91528 0.0494081C9.90896 0.0451129 9.90264 0.0415838 9.89602 0.0379452C9.87764 0.0279596 9.8581 0.0195608 9.838 0.0135147C9.83255 0.0120921 9.82768 0.00984878 9.82224 0.00837147C9.80035 0.00322821 9.77767 0 9.75475 0H2.64706C2.32248 0 2.05884 0.263975 2.05884 0.588246V5.36526H1.69873C1.23441 5.36526 0.857941 5.7416 0.857941 6.20597V10.578C0.857941 11.0422 1.23441 11.4189 1.69873 11.4189H2.05884V14.4118C2.05884 14.7361 2.32248 15 2.64706 15H12.353C12.6772 15 12.9412 14.7361 12.9412 14.4118V11.4189H13.3014C13.7655 11.4189 14.142 11.0423 14.142 10.5782V6.20613C14.1421 5.74162 13.7655 5.36543 13.3014 5.36543ZM2.64706 0.588246H9.4606V3.59776C9.4606 3.76027 9.59241 3.89188 9.75472 3.89188H12.353V5.3654H2.64706V0.588246ZM7.07522 8.56789C6.34531 8.31371 5.86975 7.90986 5.86975 7.27144C5.86975 6.52173 6.49518 5.9482 7.53127 5.9482C8.02664 5.9482 8.39159 6.05246 8.65206 6.16999L8.43074 6.97157C8.25483 6.88657 7.94207 6.76278 7.51179 6.76278C7.08181 6.76278 6.87329 6.95836 6.87329 7.18641C6.87329 7.46675 7.12079 7.59046 7.688 7.80557C8.46335 8.09225 8.8283 8.49605 8.8283 9.1153C8.8283 9.85147 8.26142 10.4773 7.05574 10.4773C6.55405 10.4773 6.05857 10.3467 5.81104 10.21L6.01294 9.38887C6.28028 9.52604 6.69073 9.66262 7.11447 9.66262C7.57056 9.66262 7.81177 9.47363 7.81177 9.1867C7.81163 8.91285 7.60297 8.75661 7.07522 8.56789ZM1.90066 8.28097C1.90066 6.78228 2.96963 5.9482 4.29867 5.9482C4.8136 5.9482 5.20457 6.05246 5.38065 6.14378L5.17842 6.93212C4.97652 6.84775 4.69605 6.76964 4.34425 6.76964C3.55575 6.76964 2.94337 7.24499 2.94337 8.22231C2.94337 9.10208 3.46456 9.65586 4.35109 9.65586C4.65058 9.65586 4.98297 9.5908 5.17842 9.51256L5.32842 10.288C5.14589 10.3794 4.73547 10.4773 4.20106 10.4773C2.6827 10.4774 1.90066 9.53209 1.90066 8.28097ZM12.353 14.2523H2.64706V11.4189H12.353V14.2523ZM11.6959 10.4119H10.536L9.12845 6.01999H10.2169L10.7511 7.87741C10.901 8.39847 11.0378 8.90021 11.1423 9.44767H11.1617C11.2724 8.91972 11.4092 8.39844 11.5591 7.89667L12.1196 6.01999H13.1756L11.6959 10.4119Z" fill="white"/>
</g>
<defs>
<clipPath id="clip0_2_353">
<rect width="15" height="15" fill="white"/>
</clipPath>
</defs>
</svg>
