<svg xmlns="http://www.w3.org/2000/svg" width="13.222" height="17" viewBox="0 0 13.222 17">
  <path id="delete-svgrepo-com" d="M24.712,21.681H36.8c.417,0,.567,1.7.567,1.7H24.146S24.3,21.681,24.712,21.681Zm4.911-1.889H31.89a1.345,1.345,0,0,1,.756.756,1.345,1.345,0,0,1-.756.756H29.624a1.345,1.345,0,0,1-.756-.756A1.345,1.345,0,0,1,29.624,19.792Zm-3.778,4.156h9.822a.756.756,0,0,1,.756.756l-.756,11.333a.756.756,0,0,1-.756.756H26.6a.756.756,0,0,1-.756-.756L25.09,24.7A.756.756,0,0,1,25.846,23.947Zm1.133,1.511.189,9.822H28.49L28.3,25.458Zm3.022,0v9.822h1.511V25.458Zm3.211,0-.189,9.822h1.322l.189-9.822Z" transform="translate(-24.146 -19.792)" fill="#ed7373"/>
</svg>
