<svg xmlns="http://www.w3.org/2000/svg" width="15" height="14.995" viewBox="0 0 15 14.995">
  <g id="edit-svgrepo-com" transform="translate(0 -0.087)">
    <g id="Group_168" data-name="Group 168" transform="translate(0 0.087)">
      <g id="Group_167" data-name="Group 167" transform="translate(0 0)">
        <path id="Path_94" data-name="Path 94" d="M85.706,147.544l-7.812,7.816a.58.58,0,1,0,.819.823l7.812-7.812a.582.582,0,0,0,0-.823A.575.575,0,0,0,85.706,147.544Z" transform="translate(-75.643 -143.433)" fill="#2d3393"/>
        <path id="Path_95" data-name="Path 95" d="M302.916,6.579a.579.579,0,0,0,.41-.169l.853-.853a2.523,2.523,0,0,0,0-3.568L303.014.825a2.525,2.525,0,0,0-3.568,0l-.853.853a.582.582,0,0,0,0,.823l3.913,3.913A.591.591,0,0,0,302.916,6.579Zm-2.647-4.939a1.365,1.365,0,0,1,1.929,0l1.164,1.164a1.363,1.363,0,0,1,0,1.926l-.447.447-3.094-3.094Z" transform="translate(-289.917 -0.087)" fill="#2d3393"/>
        <path id="Path_96" data-name="Path 96" d="M5.512,102.344,13.754,94.1a.582.582,0,1,0-.823-.823l-8.1,8.107-3.575.481.481-3.575,7.738-7.738a.582.582,0,1,0-.823-.823L.78,97.612a.576.576,0,0,0-.166.332L0,102.466a.581.581,0,0,0,.575.657.6.6,0,0,0,.078-.007l4.522-.609A.543.543,0,0,0,5.512,102.344Z" transform="translate(0 -88.128)" fill="#2d3393"/>
      </g>
    </g>
  </g>
</svg>
