<svg xmlns="http://www.w3.org/2000/svg" width="7" height="3.967" viewBox="0 0 7 3.967">
  <g id="filter-svgrepo-com" transform="translate(-16 -120)">
    <path id="Path_42" fill="#fff" data-name="Path 42" d="M22.65,120.761h-6.3a.382.382,0,0,1,0-.761h6.3a.382.382,0,0,1,0,.761Z"/>
    <path id="Path_43" fill="#fff" data-name="Path 43" d="M100.13,232.761h-3.8a.383.383,0,0,1,0-.761h3.8a.383.383,0,0,1,0,.761Z" transform="translate(-78.732 -110.397)"/>
    <path id="Path_44" fill="#fff" data-name="Path 44" d="M193.648,344.761H192.38a.38.38,0,1,1,0-.761h1.268a.38.38,0,1,1,0,.761Z" transform="translate(-173.514 -220.794)"/>
  </g>
</svg>
