<svg xmlns="http://www.w3.org/2000/svg" width="13" height="15" viewBox="0 0 13 15">
  <g id="employee-svgrepo-com" transform="translate(-63.267 0)">
    <g id="Group_98" data-name="Group 98" transform="translate(66.684 0)">
      <g id="Group_97" data-name="Group 97" transform="translate(0)">
        <path id="Path_78" data-name="Path 78" d="M153.918,0A3.083,3.083,0,1,0,157,3.083,3.086,3.086,0,0,0,153.918,0Zm0,4.692a1.609,1.609,0,1,1,1.609-1.609A1.611,1.611,0,0,1,153.918,4.692Z" transform="translate(-150.835 0)" fill="#fff"/>
      </g>
    </g>
    <g id="Group_100" data-name="Group 100" transform="translate(63.267 7.63)">
      <g id="Group_99" data-name="Group 99" transform="translate(0)">
        <path id="Path_79" data-name="Path 79" d="M69.767,260.609c-3.584,0-6.5,2.535-6.5,5.65a.8.8,0,0,0,.848.737h4.8v.246a.856.856,0,0,0,1.7,0V267h4.8a.8.8,0,0,0,.848-.737C76.267,263.144,73.351,260.609,69.767,260.609Zm-.848,4.913H65.038a4.544,4.544,0,0,1,3.882-3.374Zm1.7,0v-3.374a4.543,4.543,0,0,1,3.882,3.374H70.615Z" transform="translate(-63.267 -260.609)" fill="#fff"/>
      </g>
    </g>
  </g>
</svg>
