<svg id="XMLID_2_" xmlns="http://www.w3.org/2000/svg" width="15" height="15" viewBox="0 0 15 15">
  <path id="XMLID_4_" d="M5.344,0H1.069A1.069,1.069,0,0,0,0,1.069V5.344A1.069,1.069,0,0,0,1.069,6.413H5.344A1.069,1.069,0,0,0,6.413,5.344V1.069A1.069,1.069,0,0,0,5.344,0Z" fill="#fff"/>
  <path id="XMLID_6_" d="M5.344,120H1.069A1.069,1.069,0,0,0,0,121.069v4.275a1.069,1.069,0,0,0,1.069,1.069H5.344a1.069,1.069,0,0,0,1.069-1.069v-4.275A1.069,1.069,0,0,0,5.344,120Z" transform="translate(0 -111.413)" fill="#fff"/>
  <path id="XMLID_8_" d="M125.344,0h-4.275A1.069,1.069,0,0,0,120,1.069V5.344a1.069,1.069,0,0,0,1.069,1.069h4.275a1.069,1.069,0,0,0,1.069-1.069V1.069A1.069,1.069,0,0,0,125.344,0Z" transform="translate(-111.413)" fill="#fff"/>
  <path id="XMLID_10_" d="M125.344,120h-4.275A1.069,1.069,0,0,0,120,121.069v4.275a1.069,1.069,0,0,0,1.069,1.069h4.275a1.069,1.069,0,0,0,1.069-1.069v-4.275A1.069,1.069,0,0,0,125.344,120Z" transform="translate(-111.413 -111.413)" fill="#fff"/>
</svg>
