<svg xmlns="http://www.w3.org/2000/svg" width="15" height="15" viewBox="0 0 15 15">
  <path id="task-list-svgrepo-com" d="M4.5,0h6A4.5,4.5,0,0,1,15,4.5v6A4.5,4.5,0,0,1,10.5,15h-6A4.5,4.5,0,0,1,0,10.5v-6A4.5,4.5,0,0,1,4.5,0Zm0,1.5a3,3,0,0,0-3,3v6a3,3,0,0,0,3,3h6a3,3,0,0,0,3-3v-6a3,3,0,0,0-3-3ZM9,6.75h2.25a.75.75,0,0,1,0,1.5H9a.75.75,0,1,1,0-1.5Zm-1.5,3h3.75a.75.75,0,0,1,0,1.5H7.5a.75.75,0,0,1,0-1.5Zm0-6h3.75a.75.75,0,0,1,0,1.5H7.5a.75.75,0,0,1,0-1.5ZM4.371,7.682,5.963,6.09A.75.75,0,0,1,7.023,7.151L4.9,9.272a.75.75,0,0,1-1.061,0L2.78,8.212A.75.75,0,1,1,3.841,7.152Z" fill="#fff"/>
</svg>
