<svg xmlns="http://www.w3.org/2000/svg" width="86.026" height="20.842" viewBox="0 0 86.026 20.842">
  <g id="iRecruit" transform="translate(-56.934 -60.258)">
    <path id="Path_83" data-name="Path 83" d="M8.925-6.389H4.583v8.2H2.133V-18.46H8.252a6.812,6.812,0,0,1,4.805,1.56,5.886,5.886,0,0,1,1.682,4.539,5.829,5.829,0,0,1-.933,3.3,5.643,5.643,0,0,1-2.6,2.1l4.342,8.6v.167H12.937ZM4.583-8.574H8.328A4,4,0,0,0,11.216-9.6a3.644,3.644,0,0,0,1.073-2.757,3.857,3.857,0,0,0-1.022-2.882A4.088,4.088,0,0,0,8.315-16.26H4.583Zm18.9,10.665A5.745,5.745,0,0,1,18.941.079,7.906,7.906,0,0,1,17.189-5.3v-.473a9.782,9.782,0,0,1,.781-4,6.536,6.536,0,0,1,2.184-2.757,5.148,5.148,0,0,1,3.041-1,4.948,4.948,0,0,1,4.163,1.93,8.951,8.951,0,0,1,1.485,5.541v1.072H19.538a5.67,5.67,0,0,0,1.187,3.6A3.589,3.589,0,0,0,23.613-.012,3.807,3.807,0,0,0,25.72-.569a5.491,5.491,0,0,0,1.511-1.476L28.666-.819a5.64,5.64,0,0,1-5.18,2.91Zm-.292-13.505A3.012,3.012,0,0,0,20.8-10.279,5.8,5.8,0,0,0,19.614-7.1H26.5v-.2a5.206,5.206,0,0,0-.965-3.042,2.834,2.834,0,0,0-2.341-1.078ZM37.07-.012a3.2,3.2,0,0,0,2.2-.835,3.025,3.025,0,0,0,1.041-2.088h2.222a4.962,4.962,0,0,1-.812,2.464,5.519,5.519,0,0,1-2,1.866,5.361,5.361,0,0,1-2.647.7A5.435,5.435,0,0,1,32.608.037a8.7,8.7,0,0,1-1.657-5.618v-.432a9.822,9.822,0,0,1,.736-3.912A6.015,6.015,0,0,1,33.8-12.584a5.607,5.607,0,0,1,3.256-.947,5.23,5.23,0,0,1,3.84,1.518,5.661,5.661,0,0,1,1.631,3.94H40.308a3.7,3.7,0,0,0-1.009-2.4,2.992,2.992,0,0,0-2.241-.94A3.185,3.185,0,0,0,34.284-10,7.12,7.12,0,0,0,33.3-5.915v.487a6.976,6.976,0,0,0,.978,4.01A3.2,3.2,0,0,0,37.07-.012ZM51.81-10.941a6.431,6.431,0,0,0-1.155-.1,3.093,3.093,0,0,0-3.136,2.158V1.812H45.17V-13.253h2.285l.038,1.74a3.6,3.6,0,0,1,3.275-2.019,2.214,2.214,0,0,1,1.041.195ZM62.448.322A4.782,4.782,0,0,1,58.424,2.09,4.078,4.078,0,0,1,55.079.69a6.455,6.455,0,0,1-1.162-4.142v-9.8h2.349V-3.52Q56.266-.1,58.8-.1a3.48,3.48,0,0,0,3.58-2.2V-13.253h2.349V1.812H62.5Zm8.4,1.49H68.5V-13.253h2.349ZM68.313-17.249a1.629,1.629,0,0,1,.349-1.058,1.252,1.252,0,0,1,1.035-.432,1.271,1.271,0,0,1,1.041.432,1.61,1.61,0,0,1,.355,1.058,1.555,1.555,0,0,1-.355,1.044,1.291,1.291,0,0,1-1.041.418,1.272,1.272,0,0,1-1.035-.418A1.573,1.573,0,0,1,68.313-17.249ZM77.8-16.9v3.648h2.564v1.991H77.8v9.342a2.234,2.234,0,0,0,.34,1.357,1.375,1.375,0,0,0,1.168.452,5.214,5.214,0,0,0,1.117-.167V1.812a6.25,6.25,0,0,1-1.8.278,2.8,2.8,0,0,1-2.374-1.044,4.791,4.791,0,0,1-.8-2.966v-9.342h-2.5v-1.991h2.5V-16.9Z" transform="translate(62.535 79)" fill="#2d3392"/>
    <path id="Path_112" data-name="Path 112" d="M2.357,0V-15.273h1.78V0Zm.9-17.9a1.3,1.3,0,0,1-.935-.373,1.2,1.2,0,0,1-.388-.9,1.2,1.2,0,0,1,.388-.9,1.3,1.3,0,0,1,.935-.373,1.3,1.3,0,0,1,.935.373,1.2,1.2,0,0,1,.388.9,1.2,1.2,0,0,1-.388.9,1.3,1.3,0,0,1-.931.373Z" transform="translate(55 81)" fill="#2d3392"/>
  </g>
</svg>
