<svg xmlns="http://www.w3.org/2000/svg" width="20" height="19.607" viewBox="0 0 20 19.607">
  <g id="login-svgrepo-com" transform="translate(0 -4.9)">
    <g id="Group_2" data-name="Group 2" transform="translate(0 4.9)">
      <g id="Group_1" data-name="Group 1" transform="translate(0 0)">
        <path id="Path_1" data-name="Path 1" d="M0,144.323a.772.772,0,0,0,.772.772h14.7l-2.868,2.864a.77.77,0,1,0,1.086,1.091l4.179-4.179a.772.772,0,0,0,0-1.091L13.695,139.6a.771.771,0,1,0-1.091,1.091l2.864,2.864H.772A.768.768,0,0,0,0,144.323Z" transform="translate(0 -134.517)" fill="#fff"/>
        <path id="Path_2" data-name="Path 2" d="M25.446,24.507a4.115,4.115,0,0,0,4.105-4.119V9.019A4.117,4.117,0,0,0,25.446,4.9H14.105A4.115,4.115,0,0,0,10,9.019v2.336a.686.686,0,0,0,1.371,0V9.019a2.745,2.745,0,0,1,2.734-2.745H25.446A2.742,2.742,0,0,1,28.18,9.019V20.388a2.745,2.745,0,0,1-2.734,2.745H14.105a2.742,2.742,0,0,1-2.734-2.745V18.08a.686.686,0,1,0-1.371,0v2.308a4.117,4.117,0,0,0,4.105,4.119Z" transform="translate(-9.551 -4.9)" fill="#fff"/>
      </g>
    </g>
  </g>
</svg>
