<svg xmlns="http://www.w3.org/2000/svg" width="95" height="23" viewBox="0 0 95 23">
  <g id="iRecruit" transform="translate(-47.96 -60.262)">
    <path id="Path_84" data-name="Path 84" d="M17.94.949H18.1q.033,0,.033.071A11.247,11.247,0,0,1,16.51,2.727q-1.625,1.565-4.063,3.521A42.364,42.364,0,0,1,7.41,9.733a9.244,9.244,0,0,1-4.485,1.529h-.39a3.485,3.485,0,0,1-1.04-.142Q-1.04,10.053-1.04,6.568A15.689,15.689,0,0,1-.423,2.514,18.756,18.756,0,0,1,1.138-1.5Q2.08-3.247,2.99-3.247a1.131,1.131,0,0,1,.65.356,1.014,1.014,0,0,1,.26.711A7.627,7.627,0,0,1,3.055.451Q2.47,1.874,1.885,3.545A9.964,9.964,0,0,0,1.3,6.852a2.543,2.543,0,0,0,.813,2.169,3.449,3.449,0,0,0,2.112.6,9.313,9.313,0,0,0,5.037-2.1q2.957-2.1,5.363-4.161Q17.355.949,17.94.949ZM4.03-6.661A1.324,1.324,0,0,1,3.25-7.87V-8.3a1.765,1.765,0,0,1,.78-1.494,1.7,1.7,0,0,1,.91-.284,1.613,1.613,0,0,1,.78.213,1.968,1.968,0,0,1,.845,1.636,1.787,1.787,0,0,1-.487,1.245,1.5,1.5,0,0,1-1.138.533A2.127,2.127,0,0,1,4.03-6.661Z" transform="translate(49 72)" fill="#2c3290"/>
    <path id="Path_83" data-name="Path 83" d="M8.925-6.389H4.583v8.2H2.133V-18.46H8.252A6.812,6.812,0,0,1,13.057-16.9a5.886,5.886,0,0,1,1.682,4.539,5.829,5.829,0,0,1-.933,3.3,5.643,5.643,0,0,1-2.6,2.1l4.342,8.6v.167H12.937ZM4.583-8.574H8.328A4,4,0,0,0,11.216-9.6a3.644,3.644,0,0,0,1.073-2.757,3.857,3.857,0,0,0-1.022-2.882A4.088,4.088,0,0,0,8.315-16.26H4.583Zm18.9,10.665A5.745,5.745,0,0,1,18.941.079,7.906,7.906,0,0,1,17.189-5.3v-.473a9.782,9.782,0,0,1,.781-4,6.536,6.536,0,0,1,2.184-2.757,5.148,5.148,0,0,1,3.041-1A4.948,4.948,0,0,1,27.358-11.6a8.951,8.951,0,0,1,1.485,5.541v1.072H19.538a5.67,5.67,0,0,0,1.187,3.6A3.589,3.589,0,0,0,23.613-.012a3.807,3.807,0,0,0,2.107-.557,5.491,5.491,0,0,0,1.511-1.476L28.666-.819A5.64,5.64,0,0,1,23.486,2.091Zm-.292-13.505a3.012,3.012,0,0,0-2.387,1.135A5.8,5.8,0,0,0,19.614-7.1H26.5v-.195a5.206,5.206,0,0,0-.965-3.042A2.834,2.834,0,0,0,23.194-11.415ZM37.07-.012a3.2,3.2,0,0,0,2.2-.835,3.025,3.025,0,0,0,1.041-2.088h2.222a4.962,4.962,0,0,1-.812,2.464,5.519,5.519,0,0,1-2,1.866,5.361,5.361,0,0,1-2.647.7A5.435,5.435,0,0,1,32.608.037a8.7,8.7,0,0,1-1.657-5.618v-.432a9.822,9.822,0,0,1,.736-3.912A6.015,6.015,0,0,1,33.8-12.584a5.607,5.607,0,0,1,3.256-.947,5.23,5.23,0,0,1,3.84,1.518,5.661,5.661,0,0,1,1.631,3.94H40.308a3.7,3.7,0,0,0-1.009-2.4,2.992,2.992,0,0,0-2.241-.94A3.185,3.185,0,0,0,34.284-10,7.12,7.12,0,0,0,33.3-5.915v.487a6.976,6.976,0,0,0,.978,4.01A3.2,3.2,0,0,0,37.07-.012ZM51.81-10.941a6.431,6.431,0,0,0-1.155-.1,3.093,3.093,0,0,0-3.136,2.158V1.812H45.17V-13.253h2.285l.038,1.74a3.6,3.6,0,0,1,3.275-2.019,2.214,2.214,0,0,1,1.041.195ZM62.448.322a4.782,4.782,0,0,1-4.024,1.768,4.078,4.078,0,0,1-3.345-1.4,6.455,6.455,0,0,1-1.162-4.142v-9.8h2.349V-3.52Q56.266-.1,58.8-.1a3.48,3.48,0,0,0,3.58-2.2V-13.253h2.349V1.812H62.5Zm8.4,1.49H68.5V-13.253h2.349ZM68.313-17.249a1.629,1.629,0,0,1,.349-1.058,1.252,1.252,0,0,1,1.035-.432,1.271,1.271,0,0,1,1.041.432,1.61,1.61,0,0,1,.355,1.058,1.555,1.555,0,0,1-.355,1.044,1.291,1.291,0,0,1-1.041.418,1.272,1.272,0,0,1-1.035-.418A1.573,1.573,0,0,1,68.313-17.249ZM77.8-16.9v3.648h2.564v1.991H77.8v9.342A2.234,2.234,0,0,0,78.14-.562a1.375,1.375,0,0,0,1.168.452,5.214,5.214,0,0,0,1.117-.167V1.812a6.25,6.25,0,0,1-1.8.278,2.8,2.8,0,0,1-2.374-1.044,4.791,4.791,0,0,1-.8-2.966v-9.342h-2.5v-1.991h2.5V-16.9Z" transform="translate(62.535 79)" fill="#2c3290"/>
  </g>
</svg>
