<svg xmlns="http://www.w3.org/2000/svg" width="24.933" height="17" viewBox="0 0 24.933 17">
  <g id="mail-svgrepo-com" transform="translate(0 -81.455)">
    <g id="Group_55" data-name="Group 55" transform="translate(0 81.455)">
      <g id="Group_54" data-name="Group 54">
        <path id="Path_52" data-name="Path 52" d="M23.233,81.455H1.7a1.67,1.67,0,0,0-1.7,1.7v13.6a1.67,1.67,0,0,0,1.7,1.7H23.233a1.67,1.67,0,0,0,1.7-1.7v-13.6A1.67,1.67,0,0,0,23.233,81.455Zm.567,15.3a.535.535,0,0,1-.567.567H1.7a.535.535,0,0,1-.567-.567v-13.6a.535.535,0,0,1,.567-.567H23.233a.535.535,0,0,1,.567.567Z" transform="translate(0 -81.455)" fill="#249aea"/>
      </g>
    </g>
    <g id="Group_57" data-name="Group 57" transform="translate(2.361 89.607)">
      <g id="Group_56" data-name="Group 56">
        <path id="Path_53" data-name="Path 53" d="M51.575,256.4a.635.635,0,0,0-.827.118l-4.136,5.318a.578.578,0,0,0,.118.827.84.84,0,0,0,.355.118.537.537,0,0,0,.473-.236l4.136-5.318A.578.578,0,0,0,51.575,256.4Z" transform="translate(-46.491 -256.297)" fill="#249aea"/>
      </g>
    </g>
    <g id="Group_59" data-name="Group 59" transform="translate(17.267 89.607)">
      <g id="Group_58" data-name="Group 58">
        <path id="Path_54" data-name="Path 54" d="M366.208,261.837l-4.136-5.318a.591.591,0,0,0-.945.709l4.136,5.318a.537.537,0,0,0,.473.236.84.84,0,0,0,.355-.118A.635.635,0,0,0,366.208,261.837Z" transform="translate(-361.024 -256.298)" fill="#249aea"/>
      </g>
    </g>
    <g id="Group_61" data-name="Group 61" transform="translate(2.355 83.786)">
      <g id="Group_60" data-name="Group 60">
        <path id="Path_55" data-name="Path 55" d="M66.489,127.573a.579.579,0,0,0-.786-.059l-8.14,7.031a1.625,1.625,0,0,1-2.133,0l-8.139-7.031a.524.524,0,0,0-.786.059.652.652,0,0,0,.056.827l8.139,7.031a2.518,2.518,0,0,0,1.8.65,2.809,2.809,0,0,0,1.8-.65l8.139-7.031A.6.6,0,0,0,66.489,127.573Z" transform="translate(-46.385 -127.364)" fill="#249aea"/>
      </g>
    </g>
  </g>
</svg>
