<svg xmlns="http://www.w3.org/2000/svg" width="40" height="40" viewBox="0 0 40 40">
  <g id="Group_1831" data-name="Group 1831" transform="translate(-42.306 -1553.306)">
    <rect id="Rectangle_189" data-name="Rectangle 189" width="24" height="23" transform="translate(51 1563)" fill="#fff"/>
    <path id="menu-svgrepo-com" d="M20,0A20,20,0,1,0,40,20,20.023,20.023,0,0,0,20,0Zm8.571,29.286H11.429a1.429,1.429,0,1,1,0-2.857H28.571a1.429,1.429,0,0,1,0,2.857Zm0-7.857H11.429a1.429,1.429,0,1,1,0-2.857H28.571a1.429,1.429,0,0,1,0,2.857Zm0-7.857H11.429a1.429,1.429,0,1,1,0-2.857H28.571a1.429,1.429,0,0,1,0,2.857Z" transform="translate(42.306 1553.306)" fill="#2d3392"/>
  </g>
</svg>
