<svg xmlns="http://www.w3.org/2000/svg" width="17" height="17" viewBox="0 0 17 17">
  <g id="pdf-svgrepo-com_1_" data-name="pdf-svgrepo-com (1)" transform="translate(-0.258 -0.258)">
    <rect id="Rectangle_22" data-name="Rectangle 22" width="17" height="17" rx="3" transform="translate(0.258 0.258)" fill="#c80a0a"/>
    <path id="Path_49" data-name="Path 49" d="M103.487,104.237a2.429,2.429,0,0,0-1.727-.459,11.229,11.229,0,0,0-1.635.153,7.711,7.711,0,0,1-1.6-2.11,8.487,8.487,0,0,0,.524-2.477c0-.52-.185-1.345-.925-1.345a.637.637,0,0,0-.524.306,4,4,0,0,0,.4,3.057,27.33,27.33,0,0,1-1.542,3.577c-1.635.673-2.714,1.406-2.807,1.987-.062.275.123.734.771.734.956,0,2-1.376,2.807-2.782a19.445,19.445,0,0,1,2.837-.734,4.184,4.184,0,0,0,2.683,1.162C103.734,105.307,103.827,104.6,103.487,104.237ZM97.751,98.4c.247-.367.8-.245.8.489a7.728,7.728,0,0,1-.463,2.2A3.616,3.616,0,0,1,97.751,98.4Zm-3.917,8.561c.093-.489,1.018-1.162,2.467-1.743-.8,1.345-1.6,2.2-2.1,2.2A.375.375,0,0,1,93.834,106.958Zm6.076-3a17.827,17.827,0,0,0-2.56.673,13.787,13.787,0,0,0,1.11-2.568,10.008,10.008,0,0,0,1.45,1.9Zm.4.122a7.8,7.8,0,0,1,2.19-.061c.894.183.586,1.254-.4,1.009A4.363,4.363,0,0,1,100.311,104.084Z" transform="translate(-89.886 -94.073)" fill="#fff" stroke="#fff" stroke-width="1"/>
  </g>
</svg>
