<svg xmlns="http://www.w3.org/2000/svg" width="20" height="20" viewBox="0 0 20 20">
  <g id="up-arrow-svgrepo-com_2_" data-name="up-arrow-svgrepo-com (2)" transform="translate(20 -83.001) rotate(90)">
    <g id="Group_95" data-name="Group 95" transform="translate(83.001)">
      <path id="Path_77" data-name="Path 77" d="M10,0A10,10,0,1,0,20,10,10,10,0,0,0,10,0Zm4.512,12.653a.934.934,0,0,1-1.321,0L9.975,9.435,6.74,12.669a.934.934,0,1,1-1.32-1.32L9.173,7.6A.943.943,0,0,1,9.3,7.438a.951.951,0,0,1,1.478.158l3.736,3.736A.934.934,0,0,1,14.513,12.653Z" transform="translate(-0.001)" fill="#9c9ea1"/>
    </g>
  </g>
</svg>
